#!OML:ASF I:\Actors\actors\Patient Classification 2\Patient 1\Session 1\actor1.ASF
:FULLY-SPECIFIED
:DEGREES
706
root -0.729509 18.2382 5.08821 0.403973 -4.51906 -4.90867
lowerback 10.8924 0.351418 3.96694
upperback 2.39463 1.03217 3.04056
thorax -3.59306 0.481527 0.789963
lowerneck -0.625434 0.644335 7.8088
upperneck 9.90485 -0.450293 11.1721
head 3.38262 0.443828 2.34319
rclavicle 1.72943e-014 -2.34566e-014
rhumerus 2.16377 17.311 -48.1263
rradius 142.205
rwrist -39.7181
rhand 17.1687 -35.167
rfingers 7.12502
rthumb 41.8889 -59.7942
lclavicle 1.72943e-014 -2.34566e-014
lhumerus -52.4315 -19.3093 102.259
lradius 85.172
lwrist 20.6765
lhand -8.02705 -12.249
lfingers 7.12502
lthumb 17.8828 16.9488
rfemur 0 0 0
rtibia 0
rfoot 0 0
rtoes 0
lfemur 15.5998 -3.22753 -12.5636
ltibia -19.0015
lfoot -1.56736 21.0774
ltoes -8.15695
707
root -0.733585 18.2392 5.10081 0.526354 -4.50044 -4.90015
lowerback 10.5138 0.403677 3.77897
upperback 2.55162 1.05037 3.0621
thorax -3.22387 0.498026 0.918285
lowerneck -0.906341 0.80354 7.23967
upperneck 9.82861 -0.261585 11.4443
head 3.40729 0.529606 2.54361
rclavicle 8.15017e-015 8.34896e-015
rhumerus 1.70146 16.3175 -47.7732
rradius 142.139
rwrist -39.6441
rhand 18.6512 -33.97
rfingers 7.12502
rthumb 43.2766 -58.1174
lclavicle 8.15017e-015 8.34896e-015
lhumerus -51.9569 -19.7695 102.288
lradius 85.2212
lwrist 20.6361
lhand -7.59545 -12.1976
lfingers 7.12502
lthumb 18.2981 16.9618
rfemur 0 0 0
rtibia 0
rfoot 0 0
rtoes 0
lfemur 15.4828 -3.26769 -12.5569
ltibia -18.96
lfoot -1.65986 21.102
ltoes -7.9613
708
root -0.73681 18.2421 5.1114 0.668777 -4.3394 -4.94711
lowerback 10.3647 0.416954 3.71297
upperback 2.54987 1.05274 3.07317
thorax -3.14485 0.500765 0.967591
lowerneck -1.11084 0.879213 7.05693
upperneck 9.78564 -0.169369 11.4393
head 3.42804 0.572458 2.57826
rclavicle 5.36719e-015 1.55052e-014
rhumerus 0.954197 14.6887 -47.9538
rradius 141.708
rwrist -39.8263
rhand 15.7215 -33.9476
rfingers 7.12502
rthumb 40.5304 -59.0115
lclavicle 5.36719e-015 1.55052e-014
lhumerus -51.7613 -20.0843 102.392
lradius 85.3689
lwrist 20.643
lhand -7.44908 -12.3508
lfingers 7.12502
lthumb 18.4389 16.7953
rfemur 0 0 0
rtibia 0
rfoot 0 0
rtoes 0
lfemur 15.3329 -3.33536 -12.4835
ltibia -19.0055
lfoot -1.61975 21.0369
ltoes -7.98526
709
root -0.7401 18.2439 5.11684 0.736464 -4.05972 -5.07289
lowerback 10.577 0.35677 3.82114
upperback 2.40403 1.00317 3.02372
thorax -3.41178 0.471209 0.860118
lowerneck -1.16024 0.882937 7.3308
upperneck 9.7915 -0.1626 11.2149
head 3.43692 0.580157 2.45346
rclavicle 8.94531e-015 3.45885e-014
rhumerus 0.255965 12.9318 -48.7347
rradius 140.847
rwrist -39.8223
rhand 14.2212 -33.6783
rfingers 7.12502
rthumb 39.118 -59.1644
lclavicle 8.94531e-015 3.45885e-014
lhumerus -51.9401 -20.1959 102.449
lradius 85.6187
lwrist 20.6288
lhand -7.77369 -12.7253
lfingers 7.12502
lthumb 18.1266 16.45
rfemur 0 0 0
rtibia 0
rfoot 0 0
rtoes 0
lfemur 15.2446 -3.40831 -12.3164
ltibia -19.0934
lfoot -1.42397 20.8575
ltoes -8.22275
710
root -0.743081 18.244 5.12056 0.726486 -3.80337 -5.22334
lowerback 10.6958 0.209903 3.89931
upperback 2.38152 0.824053 2.98104
thorax -3.50115 0.380495 0.795109
lowerneck -1.17116 0.893557 7.62748
upperneck 9.83255 -0.155482 11.062
head 3.45225 0.591539 2.35051
rclavicle 6.16232e-015 -1.47101e-014
rhumerus 0.341671 11.4752 -49.8473
rradius 139.557
rwrist -39.1224
rhand 13.022 -32.8721
rfingers 7.12502
rthumb 37.9867 -58.675
lclavicle 6.16232e-015 -1.47101e-014
lhumerus -52.054 -19.8759 102.299
lradius 85.8696
lwrist 20.6277
lhand -8.36438 -12.9504
lfingers 7.12502
lthumb 17.5582 16.2767
rfemur 0 0 0
rtibia 0
rfoot 0 0
rtoes 0
lfemur 15.2564 -3.48011 -12.1304
ltibia -19.1857
lfoot -1.2463 20.6968
ltoes -8.41012
711
root -0.746111 18.244 5.12441 0.729099 -3.72825 -5.30508
lowerback 10.7164 0.0583134 3.88259
upperback 2.39028 0.619526 2.91433
thorax -3.5056 0.279197 0.762468
lowerneck -1.25225 0.856495 7.77491
upperneck 10.06 -0.25198 11.0574
head 3.5514 0.565291 2.32786
rclavicle 5.1684e-015 1.15295e-014
rhumerus 0.955741 10.8445 -50.9736
rradius 138.533
rwrist -38.1392
rhand 10.0385 -33.1733
rfingers 7.12502
rthumb 35.1628 -59.6912
lclavicle 5.1684e-015 1.15295e-014
lhumerus -52.1462 -19.2686 102.038
lradius 85.9879
lwrist 20.6851
lhand -8.98412 -12.9857
lfingers 7.12502
lthumb 16.9617 16.2937
rfemur 0 0 0
rtibia 0
rfoot 0 0
rtoes 0
lfemur 15.292 -3.58048 -12.0389
ltibia -19.2566
lfoot -1.25316 20.761
ltoes -8.39275
712
root -0.750258 18.2434 5.12879 0.780236 -3.87811 -5.33138
lowerback 10.722 -0.0187258 3.77743
upperback 2.36658 0.504424 2.84702
thorax -3.53547 0.222335 0.766924
lowerneck -1.38016 0.747221 7.86604
upperneck 10.3791 -0.456203 11.0048
head 3.69437 0.489727 2.29772
rclavicle -3.77691e-015 1.19271e-015
rhumerus 1.69501 11.2526 -51.6693
rradius 138.191
rwrist -37.3434
rhand 10.2484 -32.9182
rfingers 7.12502
rthumb 35.3619 -59.3889
lclavicle -3.77691e-015 1.19271e-015
lhumerus -52.2403 -18.6927 101.784
lradius 85.9044
lwrist 20.7856
lhand -9.52491 -13.0689
lfingers 7.12502
lthumb 16.4411 16.2544
rfemur 0 0 0
rtibia 0
rfoot 0 0
rtoes 0
lfemur 15.2987 -3.66206 -12.0167
ltibia -19.2594
lfoot -1.39211 21.0076
ltoes -8.08492
713
root -0.752824 18.2429 5.1352 0.847295 -4.18476 -5.32722
lowerback 10.681 -0.0189335 3.66586
upperback 2.35341 0.487526 2.79306
thorax -3.52732 0.214692 0.775589
lowerneck -1.33142 0.632118 7.9232
upperneck 10.5291 -0.608543 10.8071
head 3.73895 0.416967 2.21722
rclavicle 1.2424e-014 -1.47101e-014
rhumerus 2.29319 12.8179 -51.63
rradius 138.684
rwrist -37.612
rhand 12.4435 -32.6197
rfingers 7.12502
rthumb 37.4401 -58.5691
lclavicle 1.2424e-014 -1.47101e-014
lhumerus -52.2839 -18.3132 101.576
lradius 85.727
lwrist 20.8897
lhand -9.7541 -12.973
lfingers 7.12502
lthumb 16.2204 16.3684
rfemur 0 0 0
rtibia 0
rfoot 0 0
rtoes 0
lfemur 15.2959 -3.63751 -12.034
ltibia -19.1828
lfoot -1.55111 21.2611
ltoes -7.84535
714
root -0.753456 18.243 5.14292 0.888855 -4.50438 -5.23869
lowerback 10.8222 0.0131608 3.63069
upperback 2.23097 0.53431 2.66211
thorax -3.7316 0.234493 0.652775
lowerneck -1.13278 0.601257 7.85212
upperneck 10.6377 -0.627684 10.7289
head 3.73834 0.402355 2.20232
rclavicle -7.65321e-015 1.66979e-014
rhumerus 2.46113 14.8578 -51.0899
rradius 139.598
rwrist -38.2496
rhand 13.3003 -32.9239
rfingers 7.12502
rthumb 38.2494 -58.6548
lclavicle -7.65321e-015 1.66979e-014
lhumerus -52.457 -18.2077 101.435
lradius 85.5448
lwrist 20.9042
lhand -9.57458 -12.513
lfingers 7.12502
lthumb 16.3933 16.8142
rfemur 0 0 0
rtibia 0
rfoot 0 0
rtoes 0
lfemur 15.3079 -3.52993 -12.1458
ltibia -19.0739
lfoot -1.73754 21.4526
ltoes -7.8715
715
root -0.755487 18.2435 5.14983 0.938843 -4.70936 -5.12267
lowerback 11.0276 0.059838 3.59114
upperback 2.06885 0.604629 2.52742
thorax -4.01252 0.26468 0.524788
lowerneck -1.04313 0.662132 7.68757
upperneck 10.7517 -0.542767 10.7541
head 3.76013 0.443099 2.24459
rclavicle 1.10822e-014 -5.1684e-015
rhumerus 2.29567 16.8692 -50.3917
rradius 140.552
rwrist -38.799
rhand 14.1784 -33.5742
rfingers 7.12502
rthumb 39.0778 -59.0719
lclavicle 1.10822e-014 -5.1684e-015
lhumerus -52.5932 -18.3725 101.376
lradius 85.3504
lwrist 20.8131
lhand -9.1139 -12.1051
lfingers 7.12502
lthumb 16.8368 17.185
rfemur 0 0 0
rtibia 0
rfoot 0 0
rtoes 0
lfemur 15.2748 -3.40067 -12.2701
ltibia -18.9584
lfoot -1.89344 21.5336
ltoes -8.003
716
root -0.758484 18.2447 5.15817 1.02265 -4.78317 -5.06979
lowerback 11.0686 0.135201 3.58927
upperback 1.9868 0.705457 2.42229
thorax -4.11797 0.312199 0.401742
lowerneck -1.05561 0.74849 7.55897
upperneck 10.7236 -0.416234 10.7438
head 3.74906 0.499017 2.26699
rclavicle 3.52843e-015 -3.77691e-015
rhumerus 1.803 18.3531 -49.8617
rradius 141.349
rwrist -39.4086
rhand 16.3481 -34.1144
rfingers 7.12502
rthumb 41.119 -58.9928
lclavicle 3.52843e-015 -3.77691e-015
lhumerus -52.599 -18.8495 101.369
lradius 85.2855
lwrist 20.7406
lhand -8.56002 -12.0466
lfingers 7.12502
lthumb 17.3699 17.1972
rfemur 0 0 0
rtibia 0
rfoot 0 0
rtoes 0
lfemur 15.1816 -3.3188 -12.3116
ltibia -18.8498
lfoot -1.968 21.5022
ltoes -7.97586
717
root -0.761116 18.2455 5.1718 1.091 -4.81607 -5.00657
lowerback 11.0165 0.251114 3.56929
upperback 1.94537 0.850739 2.31218
thorax -4.12827 0.383346 0.277487
lowerneck -1.0792 0.838889 7.39155
upperneck 10.646 -0.285502 10.8202
head 3.72328 0.556337 2.3252
rclavicle -1.26725e-014 1.33186e-014
rhumerus 0.990534 18.2061 -49.5959
rradius 141.657
rwrist -39.3451
rhand 17.2426 -34.0514
rfingers 7.12502
rthumb 41.9582 -58.6554
lclavicle -1.26725e-014 1.33186e-014
lhumerus -52.5766 -19.507 101.431
lradius 85.3467
lwrist 20.74
lhand -8.14748 -12.1403
lfingers 7.12502
lthumb 17.7669 17.068
rfemur 0 0 0
rtibia 0
rfoot 0 0
rtoes 0
lfemur 15.1264 -3.37061 -12.3796
ltibia -18.7867
lfoot -2.0669 21.5362
ltoes -7.69889
718
root -0.763882 18.2454 5.1878 1.12086 -4.77846 -4.98723
lowerback 10.9578 0.347461 3.4861
upperback 1.91302 0.965483 2.27602
thorax -4.12795 0.440828 0.270452
lowerneck -1.05277 0.927552 7.2094
upperneck 10.5454 -0.149578 10.9155
head 3.67944 0.61345 2.39135
rclavicle 2.78299e-015 3.97569e-016
rhumerus 0.0469852 16.7854 -49.4982
rradius 141.419
rwrist -39.2314
rhand 16.9406 -33.5807
rfingers 7.12502
rthumb 41.6751 -58.2787
lclavicle 2.78299e-015 3.97569e-016
lhumerus -52.5288 -19.9772 101.571
lradius 85.4253
lwrist 20.7359
lhand -8.01366 -12.2558
lfingers 7.12502
lthumb 17.8957 16.9408
rfemur 0 0 0
rtibia 0
rfoot 0 0
rtoes 0
lfemur 15.1307 -3.4954 -12.4097
ltibia -18.7812
lfoot -2.10193 21.5868
ltoes -7.64486
